<svg width="98" height="62" viewBox="0 0 98 62" fill="none" xmlns="http://www.w3.org/2000/svg">
<circle cx="11.232" cy="50.2858" r="11.232" fill="#1B1B1B"/>
<mask id="mask0_22_5827" style="mask-type:alpha" maskUnits="userSpaceOnUse" x="7" y="47" width="8" height="8">
<path d="M8.72471 48.6819C9.09395 48.6819 9.39328 48.3825 9.39328 48.0133C9.39328 47.6441 9.09395 47.3447 8.72471 47.3447C8.35547 47.3447 8.05614 47.6441 8.05614 48.0133C8.05614 48.3825 8.35547 48.6819 8.72471 48.6819Z" fill="white" stroke="white" stroke-width="0.668574"/>
<path d="M8.05621 49.6836H9.39336V53.8622H8.05621V49.6836ZM10.7305 51.2715V53.8622H11.9005V51.5222C11.9005 51.1043 12.1512 50.77 12.5691 50.77C12.9869 50.77 13.2377 51.1879 13.2377 51.5222V53.8622H14.4077V51.2715C14.4077 50.77 13.8227 49.6836 12.5691 49.6836C11.3155 49.6836 10.7305 50.77 10.7305 51.2715Z" fill="white" stroke="white" stroke-width="0.668574" stroke-linejoin="round"/>
</mask>
<g mask="url(#mask0_22_5827)">
<path d="M7.22061 46.6758H15.2435V54.6987H7.22061V46.6758Z" fill="white"/>
</g>
<circle cx="48.9397" cy="11.7755" r="11.232" fill="#1B1B1B"/>
<path fill-rule="evenodd" clip-rule="evenodd" d="M47.2858 8.1896C47.7136 8.1699 47.85 8.16553 48.9397 8.16553C50.0293 8.16553 50.1657 8.17027 50.5931 8.1896C51.0205 8.20892 51.3122 8.27712 51.5675 8.37595C51.8348 8.47696 52.0773 8.63487 52.2779 8.83909C52.4821 9.03929 52.6397 9.28144 52.7403 9.54911C52.8395 9.80438 52.9073 10.0961 52.927 10.5228C52.9467 10.9513 52.9511 11.0877 52.9511 12.177C52.9511 13.2666 52.9464 13.403 52.927 13.8308C52.9077 14.2575 52.8395 14.5492 52.7403 14.8045C52.6397 15.0722 52.4819 15.3147 52.2779 15.5152C52.0773 15.7194 51.8348 15.877 51.5675 15.9776C51.3122 16.0768 51.0205 16.1447 50.5938 16.1643C50.1657 16.184 50.0293 16.1884 48.9397 16.1884C47.85 16.1884 47.7136 16.1837 47.2858 16.1643C46.8592 16.145 46.5674 16.0768 46.3122 15.9776C46.0445 15.877 45.8019 15.7192 45.6014 15.5152C45.3973 15.3149 45.2394 15.0725 45.1386 14.8048C45.0398 14.5496 44.972 14.2578 44.9523 13.8311C44.9326 13.4026 44.9282 13.2663 44.9282 12.177C44.9282 11.0873 44.9329 10.9509 44.9523 10.5235C44.9716 10.0961 45.0398 9.80438 45.1386 9.54911C45.2395 9.28147 45.3976 9.03904 45.6018 8.83872C45.802 8.63468 46.0443 8.47676 46.3118 8.37595C46.5671 8.27712 46.8588 8.20929 47.2855 8.1896H47.2858ZM50.5606 8.91166C50.1376 8.89233 50.0107 8.88832 48.9397 8.88832C47.8686 8.88832 47.7417 8.89233 47.3187 8.91166C46.9274 8.92952 46.7151 8.9948 46.5736 9.04987C46.3865 9.1228 46.2527 9.20923 46.1123 9.34963C45.9792 9.47911 45.8768 9.63674 45.8125 9.81095C45.7575 9.95244 45.6922 10.1647 45.6743 10.556C45.655 10.979 45.651 11.1059 45.651 12.177C45.651 13.248 45.655 13.3749 45.6743 13.798C45.6922 14.1893 45.7575 14.4015 45.8125 14.543C45.8767 14.7169 45.9792 14.8748 46.1123 15.0043C46.2418 15.1374 46.3997 15.2399 46.5736 15.3041C46.7151 15.3591 46.9274 15.4244 47.3187 15.4423C47.7417 15.4616 47.8682 15.4656 48.9397 15.4656C50.0111 15.4656 50.1376 15.4616 50.5606 15.4423C50.9519 15.4244 51.1642 15.3591 51.3057 15.3041C51.4928 15.2311 51.6266 15.1447 51.767 15.0043C51.9001 14.8748 52.0026 14.7169 52.0668 14.543C52.1218 14.4015 52.1871 14.1893 52.205 13.798C52.2243 13.3749 52.2283 13.248 52.2283 12.177C52.2283 11.1059 52.2243 10.979 52.205 10.556C52.1871 10.1647 52.1218 9.95244 52.0668 9.81095C51.9938 9.62387 51.9074 9.49003 51.767 9.34963C51.6375 9.21655 51.4799 9.11413 51.3057 9.04987C51.1642 8.9948 50.9519 8.92952 50.5606 8.91166ZM48.4273 13.4136C48.7134 13.5327 49.0321 13.5488 49.3287 13.4591C49.6254 13.3694 49.8818 13.1794 50.054 12.9217C50.2262 12.664 50.3036 12.3545 50.2729 12.0461C50.2423 11.7377 50.1055 11.4494 49.886 11.2306C49.746 11.0908 49.5768 10.9837 49.3905 10.9171C49.2042 10.8505 49.0054 10.826 48.8085 10.8454C48.6116 10.8648 48.4215 10.9277 48.2518 11.0294C48.0821 11.1311 47.9371 11.2692 47.8271 11.4337C47.7172 11.5982 47.6451 11.785 47.6161 11.9808C47.587 12.1765 47.6017 12.3762 47.6591 12.5655C47.7165 12.7549 47.8152 12.9292 47.948 13.0758C48.0808 13.2224 48.2445 13.3378 48.4273 13.4136ZM47.4817 10.719C47.6731 10.5275 47.9004 10.3757 48.1506 10.272C48.4008 10.1684 48.6689 10.1151 48.9397 10.1151C49.2104 10.1151 49.4785 10.1684 49.7287 10.272C49.9789 10.3757 50.2062 10.5275 50.3976 10.719C50.5891 10.9105 50.741 11.1378 50.8446 11.3879C50.9482 11.6381 51.0015 11.9062 51.0015 12.177C51.0015 12.4477 50.9482 12.7159 50.8446 12.966C50.741 13.2162 50.5891 13.4435 50.3976 13.6349C50.0109 14.0216 49.4865 14.2389 48.9397 14.2389C48.3928 14.2389 47.8684 14.0216 47.4817 13.6349C47.095 13.2483 46.8778 12.7238 46.8778 12.177C46.8778 11.6301 47.095 11.1057 47.4817 10.719ZM51.4588 10.4221C51.5063 10.3774 51.5443 10.3236 51.5705 10.2639C51.5968 10.2042 51.6108 10.1398 51.6118 10.0746C51.6127 10.0094 51.6006 9.94462 51.5761 9.88418C51.5516 9.82374 51.5152 9.76883 51.469 9.72271C51.4229 9.67659 51.368 9.64019 51.3076 9.61567C51.2471 9.59115 51.1824 9.57901 51.1172 9.57996C51.0519 9.58091 50.9876 9.59493 50.9279 9.62121C50.8682 9.64748 50.8144 9.68546 50.7696 9.73291C50.6826 9.82518 50.6349 9.94775 50.6367 10.0746C50.6386 10.2014 50.6898 10.3225 50.7795 10.4122C50.8692 10.5019 50.9903 10.5531 51.1172 10.555C51.244 10.5568 51.3666 10.5092 51.4588 10.4221Z" fill="white"/>
<circle cx="86.6471" cy="11.7755" r="11.232" fill="#1B1B1B"/>
<path d="M91.7024 9.11719C91.3395 9.27801 90.9496 9.38667 90.5398 9.43578C90.9627 9.18273 91.2791 8.78445 91.4299 8.31527C91.0326 8.55128 90.5977 8.7174 90.1442 8.80642C89.8393 8.48081 89.4354 8.26499 88.9952 8.19247C88.555 8.11995 88.1032 8.19478 87.7099 8.40535C87.3166 8.61592 87.0038 8.95044 86.8202 9.35698C86.6365 9.76352 86.5921 10.2193 86.694 10.6537C85.8889 10.6132 85.1013 10.404 84.3824 10.0395C83.6634 9.67495 83.0291 9.16333 82.5206 8.53781C82.3467 8.83771 82.2468 9.18543 82.2468 9.55574C82.2466 9.88911 82.3287 10.2174 82.4858 10.5114C82.6429 10.8054 82.8701 11.0562 83.1473 11.2413C82.8258 11.2311 82.5114 11.1442 82.2302 10.9879V11.014C82.2302 11.4815 82.392 11.9347 82.688 12.2966C82.9841 12.6585 83.3962 12.9068 83.8545 12.9994C83.5563 13.0801 83.2436 13.092 82.94 13.0342C83.0693 13.4365 83.3212 13.7883 83.6604 14.0404C83.9996 14.2924 84.4091 14.4321 84.8316 14.4398C84.1144 15.0029 83.2286 15.3083 82.3167 15.307C82.1552 15.307 81.9938 15.2976 81.8334 15.2787C82.759 15.8738 83.8364 16.1896 84.9368 16.1884C88.6617 16.1884 90.698 13.1033 90.698 10.4276C90.698 10.3407 90.6958 10.2529 90.6919 10.166C91.088 9.87954 91.4299 9.52484 91.7016 9.11849L91.7024 9.11719Z" fill="white"/>
<circle cx="86.6471" cy="50.2858" r="11.232" fill="#1B1B1B"/>
<path fill-rule="evenodd" clip-rule="evenodd" d="M90.6587 50.6872C90.6587 52.9025 88.8625 54.6987 86.6472 54.6987C84.4319 54.6987 82.6358 52.9025 82.6358 50.6872C82.6358 48.4719 84.4319 46.6758 86.6472 46.6758C88.8625 46.6758 90.6587 48.4719 90.6587 50.6872ZM89.2172 50.3723C89.2821 50.4649 89.3188 50.5742 89.3228 50.6872C89.3246 50.7978 89.295 50.9065 89.2375 51.001C89.18 51.0954 89.0969 51.1716 88.9979 51.2207C89.0026 51.2796 89.0026 51.3384 88.9979 51.3972C88.9979 52.2958 87.9509 53.0259 86.6593 53.0259C85.3676 53.0259 84.3206 52.2958 84.3206 51.3972C84.3161 51.3385 84.3161 51.2795 84.3206 51.2207C84.2441 51.1849 84.1763 51.133 84.1217 51.0685C84.0672 51.004 84.0273 50.9284 84.0048 50.847C83.9823 50.7656 83.9776 50.6803 83.9912 50.5969C84.0048 50.5136 84.0362 50.4341 84.0834 50.3641C84.1306 50.294 84.1924 50.235 84.2646 50.1911C84.3367 50.1472 84.4175 50.1195 84.5014 50.1098C84.5853 50.1001 84.6703 50.1087 84.7506 50.135C84.8309 50.1612 84.9045 50.2046 84.9664 50.262C85.4286 49.9485 85.9724 49.777 86.5309 49.7686L86.8277 48.3766C86.8311 48.3605 86.8376 48.3452 86.8469 48.3316C86.8561 48.3181 86.868 48.3065 86.8818 48.2975C86.8956 48.2885 86.9111 48.2824 86.9273 48.2795C86.9435 48.2765 86.9601 48.2768 86.9762 48.2804L87.959 48.4769C88.007 48.3945 88.0828 48.3318 88.1728 48.3002C88.2628 48.2686 88.3612 48.2701 88.4502 48.3045C88.5392 48.3389 88.613 48.4038 88.6584 48.4878C88.7038 48.5717 88.7179 48.669 88.698 48.7623C88.6781 48.8556 88.6256 48.9388 88.5499 48.9969C88.4742 49.055 88.3803 49.0842 88.285 49.0793C88.1898 49.0744 88.0993 49.0357 88.03 48.9702C87.9607 48.9046 87.917 48.8165 87.9068 48.7216L87.0484 48.5411L86.7876 49.7927C87.3393 49.8045 87.8757 49.9759 88.332 50.2861C88.3929 50.2275 88.4658 50.1828 88.5456 50.1551C88.6255 50.1274 88.7104 50.1173 88.7945 50.1254C88.8786 50.1336 88.9599 50.16 89.0329 50.2026C89.1059 50.2452 89.1687 50.3031 89.2172 50.3723ZM85.3789 50.8654C85.3497 50.9092 85.3293 50.9584 85.319 51.01C85.3087 51.0617 85.3087 51.1149 85.319 51.1666C85.3397 51.271 85.4011 51.3629 85.4896 51.422C85.5781 51.4811 85.6864 51.5027 85.7908 51.4819C85.8425 51.4717 85.8916 51.4513 85.9354 51.422C85.9793 51.3928 86.0169 51.3551 86.0462 51.3113C86.1053 51.2229 86.1269 51.1145 86.1061 51.0101C86.0854 50.9057 86.024 50.8139 85.9355 50.7548C85.847 50.6956 85.7387 50.6741 85.6343 50.6948C85.5299 50.7156 85.4381 50.7769 85.3789 50.8654ZM86.6512 52.5004C87.0072 52.5151 87.3576 52.4222 87.6421 52.2076C87.6633 52.1868 87.6755 52.1585 87.6759 52.1288C87.6762 52.099 87.6648 52.0704 87.6441 52.0491C87.6338 52.0386 87.6215 52.0302 87.608 52.0244C87.5945 52.0186 87.58 52.0155 87.5652 52.0153C87.5355 52.0149 87.5069 52.0264 87.4856 52.0471C87.2422 52.2217 86.9464 52.3081 86.6472 52.2918C86.3484 52.3052 86.054 52.216 85.8128 52.0391C85.7921 52.022 85.7657 52.0133 85.7388 52.0146C85.712 52.0159 85.6865 52.0272 85.6675 52.0462C85.6485 52.0652 85.6373 52.0906 85.6359 52.1175C85.6346 52.1443 85.6433 52.1707 85.6604 52.1915C85.945 52.406 86.2952 52.5151 86.6512 52.5004ZM87.3469 51.438C87.4131 51.4822 87.4866 51.5216 87.5658 51.5216C87.6202 51.5222 87.6742 51.5118 87.7244 51.4909C87.7747 51.47 87.8201 51.4391 87.8581 51.4001C87.896 51.361 87.9255 51.3147 87.9449 51.2639C87.9644 51.213 87.9732 51.1588 87.971 51.1044C87.971 51.0351 87.953 50.967 87.9188 50.9067C87.8847 50.8465 87.8354 50.7961 87.776 50.7604C87.7166 50.7248 87.6489 50.7052 87.5796 50.7035C87.5104 50.7018 87.4418 50.7181 87.3807 50.7508C87.3196 50.7835 87.268 50.8314 87.231 50.8899C87.1939 50.9485 87.1726 51.0156 87.1692 51.0848C87.1658 51.154 87.1804 51.2229 87.2115 51.2848C87.2426 51.3467 87.2893 51.3995 87.3469 51.438Z" fill="white"/>
<circle cx="48.9397" cy="50.2858" r="11.232" fill="#1B1B1B"/>
<path d="M52.7831 49.1194C52.7377 48.9574 52.6492 48.8107 52.5271 48.6949C52.4015 48.5756 52.2476 48.4902 52.0799 48.4469C51.4521 48.2814 48.9373 48.2814 48.9373 48.2814C47.8889 48.2695 46.8408 48.322 45.7988 48.4385C45.6311 48.4851 45.4774 48.5723 45.3516 48.6926C45.2279 48.8116 45.1383 48.9583 45.0915 49.1191C44.9791 49.7246 44.9245 50.3395 44.9284 50.9554C44.9244 51.5707 44.9789 52.1854 45.0915 52.7917C45.1373 52.9518 45.2266 53.0979 45.3506 53.2159C45.4746 53.3338 45.629 53.4191 45.7988 53.4642C46.4348 53.6293 48.9373 53.6293 48.9373 53.6293C49.9871 53.6413 51.0365 53.5888 52.0799 53.4722C52.2476 53.4289 52.4015 53.3435 52.5271 53.2242C52.6492 53.1085 52.7375 52.9618 52.7828 52.7997C52.8981 52.1944 52.9542 51.5793 52.9502 50.9631C52.9589 50.3443 52.9029 49.7262 52.7831 49.1191V49.1194ZM48.1378 52.0998V49.8113L50.2302 50.9557L48.1378 52.0998Z" fill="white"/>
<circle cx="11.232" cy="11.7755" r="11.232" fill="#1B1B1B"/>
<path d="M11.4312 15.8985V12.3768H12.6192L12.7958 10.998H11.4312V10.1198C11.4312 9.72188 11.542 9.44947 12.1131 9.44947H12.8367V8.22017C12.4846 8.18244 12.1307 8.16422 11.7766 8.1656C10.7265 8.1656 10.0055 8.80667 10.0055 9.98355V10.9954H8.82521V12.3743H10.0081V15.8985H11.4312Z" fill="white"/>
</svg>
